<svg width="100" height="100" viewBox="0 0 100 100" fill="none" xmlns="http://www.w3.org/2000/svg">
<path opacity="0.3" d="M45.416 82.9577C46.916 83.166 48.416 83.3327 49.9993 83.3327C58.7466 83.329 67.1419 79.8871 73.3743 73.7493L62.041 54.166L45.416 82.9577ZM41.0827 82.0827L52.3743 62.4993H19.1243C21.0509 67.2206 24.0307 71.4392 27.8363 74.8332C31.6419 78.2271 36.1727 80.7067 41.0827 82.0827ZM35.5827 49.9993L23.7493 29.541C19.1663 35.3762 16.6723 42.5796 16.666 49.9993C16.666 52.8743 17.0827 55.666 17.7493 58.3327H40.3743L35.5827 49.9993ZM76.2493 70.4577C80.8324 64.6225 83.3264 57.4191 83.3327 49.9993C83.3327 47.1243 82.916 44.3327 82.2493 41.666H59.6243L76.2493 70.4577ZM57.2077 37.4993H80.8743C78.9457 32.7722 75.9602 28.5494 72.1467 25.1549C68.3333 21.7603 63.7931 19.2841 58.8743 17.916L47.5827 37.4993H57.2077ZM42.791 37.4993L54.5827 16.9993C53.0827 16.791 51.541 16.666 49.9993 16.666C40.916 16.666 32.666 20.3327 26.666 26.2493L37.9993 45.8327L42.791 37.4993Z" fill="white"/>
<path d="M50.0006 91.6673C73.0006 91.6673 91.6673 73.0006 91.6673 50.0006C91.6673 30.209 77.8756 13.6673 59.3756 9.41732L59.0423 9.25065L59.0006 9.33398C56.084 8.70898 53.084 8.33398 50.0006 8.33398C27.0007 8.33398 8.33398 27.0007 8.33398 50.0006C8.33398 73.0006 27.0007 91.6673 50.0006 91.6673ZM50.0006 83.334C48.4173 83.334 46.9173 83.1673 45.4173 82.959L62.0423 54.1673L73.3757 73.7507C67.1432 79.8884 58.7479 83.3303 50.0006 83.334ZM83.334 50.0006C83.334 57.709 80.6673 64.7923 76.2506 70.459L59.584 41.6673H82.209C82.9173 44.334 83.334 47.1256 83.334 50.0006ZM80.8756 37.5006H47.584L58.8756 17.9173C68.8756 20.6673 77.0006 28.0007 80.8756 37.5006ZM50.0006 16.6673C51.5423 16.6673 53.084 16.7923 54.584 17.0007L42.7923 37.5006L38.0006 45.834L26.6673 26.2507C32.8789 20.107 41.2641 16.6631 50.0006 16.6673ZM16.6673 50.0006C16.6673 42.2923 19.334 35.209 23.7506 29.5423L35.584 50.0006L40.3756 58.334H17.7507C17.084 55.6673 16.6673 52.8756 16.6673 50.0006ZM42.7923 62.5006H52.3756L41.084 82.084C36.1686 80.7088 31.6319 78.23 27.8195 74.8363C24.007 71.4426 21.0193 67.2236 19.084 62.5006H42.7923Z" fill="white"/>
</svg>
